
<svg width="200" height="80" viewBox="0 0 200 80" fill="none" xmlns="http://www.w3.org/2000/svg">
  <path d="M60 40C60 51.0457 51.0457 60 40 60C28.9543 60 20 51.0457 20 40C20 28.9543 28.9543 20 40 20C51.0457 20 60 28.9543 60 40Z" fill="#212121" stroke="white" stroke-width="2"/>
  <path fill-rule="evenodd" clip-rule="evenodd" d="M37.5 30H42.5V35H47.5V40H42.5V50H37.5V30Z" fill="#212121"/>
  <path d="M37.5 30H42.5M42.5 30V35M42.5 35H47.5M47.5 35V40M47.5 40H42.5M42.5 40V50M42.5 50H37.5M37.5 50V30" stroke="white" stroke-width="1"/>
  <rect x="35" y="38" width="2" height="2" fill="white"/>
  <rect x="35" y="42" width="2" height="2" fill="white"/>
  <rect x="43" y="38" width="2" height="2" fill="white"/>
  <rect x="43" y="42" width="2" height="2" fill="white"/>
  <rect x="43" y="46" width="2" height="2" fill="white"/>
  <rect x="47" y="42" width="2" height="2" fill="white"/>
  <rect x="31" y="42" width="2" height="2" fill="white"/>
  <rect x="31" y="38" width="2" height="2" fill="white"/>
  <rect x="39" y="34" width="2" height="2" fill="white"/>
  <text x="70" y="45" font-family="Arial, sans-serif" font-size="16" font-weight="bold" fill="white">diligince.ai</text>
  <text x="70" y="60" font-family="Arial, sans-serif" font-size="10" fill="#AAA">Where Industry Meets Intelligence</text>
</svg>
